<svg
  xmlns="http://www.w3.org/2000/svg"
  width="1200"
  height="560"
  viewBox="0 0 1200 560"
  role="img"
  aria-labelledby="title desc"
>
  <title id="title">
    Yağmur Güngöz AI portfolio dashboard
  </title>

  <desc id="desc">
    Koyu temalı, hareketli yapay zekâ geliştirici portföy paneli.
  </desc>

  <defs>
    <linearGradient id="bg" x1="0" y1="0" x2="1" y2="1">
      <stop offset="0" stop-color="#05070d"/>
      <stop offset=".55" stop-color="#0b1220"/>
      <stop offset="1" stop-color="#07101b"/>
    </linearGradient>

    <linearGradient id="panel" x1="0" y1="0" x2="1" y2="1">
      <stop offset="0" stop-color="#111a2b" stop-opacity=".96"/>
      <stop offset="1" stop-color="#0a101c" stop-opacity=".96"/>
    </linearGradient>

    <linearGradient id="accent" x1="0" y1="0" x2="1" y2="0">
      <stop offset="0" stop-color="#24d3ee"/>
      <stop offset=".48" stop-color="#7c5cff"/>
      <stop offset="1" stop-color="#ff4f9a"/>
    </linearGradient>

    <radialGradient id="glow">
      <stop offset="0" stop-color="#24d3ee" stop-opacity=".22"/>
      <stop offset="1" stop-color="#24d3ee" stop-opacity="0"/>
    </radialGradient>

    <filter
      id="softGlow"
      x="-80%"
      y="-80%"
      width="260%"
      height="260%"
    >
      <feGaussianBlur stdDeviation="6" result="blur"/>

      <feMerge>
        <feMergeNode in="blur"/>
        <feMergeNode in="SourceGraphic"/>
      </feMerge>
    </filter>

    <clipPath id="scanClip">
      <rect
        x="345"
        y="118"
        width="515"
        height="314"
        rx="18"
      />
    </clipPath>

    <style>
      text {
        font-family: Inter, "Segoe UI", Arial, sans-serif;
      }

      .mono {
        font-family: ui-monospace, SFMono-Regular, Menlo, Consolas, monospace;
      }

      .muted {
        fill: #8090a8;
      }

      .label {
        fill: #9fb0c8;
        font-size: 13px;
        letter-spacing: 1.4px;
      }

      .tiny {
        fill: #718098;
        font-size: 11px;
      }

      .card-title {
        fill: #f5f8ff;
        font-size: 16px;
        font-weight: 700;
      }
    </style>
  </defs>

  <rect
    width="1200"
    height="560"
    rx="28"
    fill="url(#bg)"
  />

  <circle
    cx="785"
    cy="235"
    r="420"
    fill="url(#glow)"
  />

  <!-- Arka plan ızgarası -->

  <g
    stroke="#25334a"
    stroke-opacity=".22"
    stroke-width="1"
  >
    <path
      d="
        M0 70H1200
        M0 140H1200
        M0 210H1200
        M0 280H1200
        M0 350H1200
        M0 420H1200
        M0 490H1200
      "
    />

    <path
      d="
        M75 0V560
        M150 0V560
        M225 0V560
        M300 0V560
        M375 0V560
        M450 0V560
        M525 0V560
        M600 0V560
        M675 0V560
        M750 0V560
        M825 0V560
        M900 0V560
        M975 0V560
        M1050 0V560
        M1125 0V560
      "
    />
  </g>

  <!-- Üst tarayıcı çubuğu -->

  <rect
    x="24"
    y="22"
    width="1152"
    height="54"
    rx="16"
    fill="#0c1321"
    stroke="#26344b"
  />

  <circle cx="53" cy="49" r="6" fill="#ff5f57"/>
  <circle cx="74" cy="49" r="6" fill="#febc2e"/>
  <circle cx="95" cy="49" r="6" fill="#28c840"/>

  <text
    x="127"
    y="54"
    class="mono"
    fill="#8fa3bf"
    font-size="14"
  >
    ygmr-gngz / developer_portfolio
  </text>

  <rect
    x="950"
    y="35"
    width="194"
    height="28"
    rx="14"
    fill="#102638"
    stroke="#1e5266"
  />

  <circle
    cx="971"
    cy="49"
    r="5"
    fill="#33e6ac"
  >
    <animate
      attributeName="opacity"
      values=".35;1;.35"
      dur="2.2s"
      repeatCount="indefinite"
    />
  </circle>

  <text
    x="986"
    y="54"
    fill="#a8f5de"
    font-size="12"
    font-weight="700"
  >
    AVAILABLE FOR AI ROLES
  </text>

  <!-- Sol profil paneli -->

  <rect
    x="24"
    y="94"
    width="295"
    height="442"
    rx="22"
    fill="url(#panel)"
    stroke="#2b3a52"
  />

  <circle
    cx="171.5"
    cy="171"
    r="62"
    fill="#111e31"
    stroke="url(#accent)"
    stroke-width="4"
  />

  <circle
    cx="171.5"
    cy="171"
    r="48"
    fill="#0a1220"
  />

  <text
    x="171.5"
    y="183"
    text-anchor="middle"
    fill="#ffffff"
    font-size="35"
    font-weight="800"
  >
    YG
  </text>

  <circle
    cx="216"
    cy="212"
    r="10"
    fill="#0b1421"
    stroke="#2b3a52"
  />

  <circle
    cx="216"
    cy="212"
    r="5"
    fill="#33e6ac"
  >
    <animate
      attributeName="r"
      values="4;6;4"
      dur="1.8s"
      repeatCount="indefinite"
    />
  </circle>

  <text
    x="171.5"
    y="262"
    text-anchor="middle"
    fill="#ffffff"
    font-size="25"
    font-weight="800"
  >
    Yağmur Güngöz
  </text>

  <text
    x="171.5"
    y="289"
    text-anchor="middle"
    fill="#7fdff0"
    font-size="14"
    font-weight="700"
  >
    AI ENGINEER
  </text>

  <text
    x="171.5"
    y="315"
    text-anchor="middle"
    class="muted"
    font-size="13"
  >
    LLM · RAG · Agents · Vision
  </text>

  <rect
    x="48"
    y="345"
    width="247"
    height="1"
    fill="#29384e"
  />

  <text x="50" y="379" class="label">
    LOCATION
  </text>

  <text
    x="292"
    y="379"
    text-anchor="end"
    fill="#e7edf8"
    font-size="13"
  >
    İstanbul, Türkiye
  </text>

  <text x="50" y="414" class="label">
    FOCUS
  </text>

  <text
    x="292"
    y="414"
    text-anchor="end"
    fill="#e7edf8"
    font-size="13"
  >
    AI Product Systems
  </text>

  <text x="50" y="449" class="label">
    STATUS
  </text>

  <text
    x="292"
    y="449"
    text-anchor="end"
    fill="#7cf4d0"
    font-size="13"
  >
    Building
  </text>

  <rect
    x="48"
    y="479"
    width="247"
    height="34"
    rx="10"
    fill="#0f2031"
    stroke="#254863"
  />

  <text
    x="171.5"
    y="501"
    text-anchor="middle"
    fill="#a9eefa"
    font-size="12"
    font-weight="700"
  >
    RESEARCH → PRODUCTION
  </text>

  <!-- Orta sistem paneli -->

  <rect
    x="341"
    y="94"
    width="535"
    height="442"
    rx="22"
    fill="url(#panel)"
    stroke="#2b3a52"
  />

  <text x="369" y="128" class="label">
    SYSTEM OVERVIEW
  </text>

  <text
    x="369"
    y="157"
    fill="#ffffff"
    font-size="23"
    font-weight="800"
  >
    Intelligent Product Architecture
  </text>

  <text
    x="369"
    y="181"
    class="muted"
    font-size="13"
  >
    From data and models to reliable user-facing systems.
  </text>

  <rect
    x="365"
    y="205"
    width="487"
    height="222"
    rx="18"
    fill="#070d17"
    stroke="#223048"
  />

  <g
    stroke="#27364e"
    stroke-opacity=".65"
  >
    <path
      d="
        M390 247H827
        M390 290H827
        M390 333H827
        M390 376H827
      "
    />

    <path
      d="
        M438 225V407
        M499 225V407
        M560 225V407
        M621 225V407
        M682 225V407
        M743 225V407
        M804 225V407
      "
    />
  </g>

  <!-- Yapay sinir ağı -->

  <g
    stroke="#3dd9ee"
    stroke-opacity=".38"
    stroke-width="1.4"
  >
    <path d="M420 315L505 260L594 305L690 248L791 302"/>
    <path d="M420 315L500 365L594 305L685 370L791 302"/>

    <path
      d="
        M505 260L500 365
        M594 305L690 248
        M594 305L685 370
        M690 248L791 302
      "
    />
  </g>

  <g
    fill="#dffbff"
    filter="url(#softGlow)"
  >
    <circle cx="420" cy="315" r="5">
      <animate
        attributeName="opacity"
        values=".35;1;.35"
        dur="2.1s"
        repeatCount="indefinite"
      />
    </circle>

    <circle cx="505" cy="260" r="6">
      <animate
        attributeName="opacity"
        values="1;.35;1"
        dur="2.7s"
        repeatCount="indefinite"
      />
    </circle>

    <circle cx="500" cy="365" r="5">
      <animate
        attributeName="opacity"
        values=".4;1;.4"
        dur="3.1s"
        repeatCount="indefinite"
      />
    </circle>

    <circle cx="594" cy="305" r="8">
      <animate
        attributeName="r"
        values="6;9;6"
        dur="2.4s"
        repeatCount="indefinite"
      />
    </circle>

    <circle cx="690" cy="248" r="6">
      <animate
        attributeName="opacity"
        values=".4;1;.4"
        dur="2.9s"
        repeatCount="indefinite"
      />
    </circle>

    <circle cx="685" cy="370" r="5">
      <animate
        attributeName="opacity"
        values="1;.4;1"
        dur="2.3s"
        repeatCount="indefinite"
      />
    </circle>

    <circle cx="791" cy="302" r="7">
      <animate
        attributeName="r"
        values="5;8;5"
        dur="3.3s"
        repeatCount="indefinite"
      />
    </circle>
  </g>

  <!-- Hareketli tarama çizgisi -->

  <g clip-path="url(#scanClip)">
    <rect
      x="365"
      y="216"
      width="487"
      height="2"
      fill="#50e4f5"
      opacity=".5"
      filter="url(#softGlow)"
    >
      <animate
        attributeName="y"
        values="216;414;216"
        dur="5.5s"
        repeatCount="indefinite"
      />
    </rect>
  </g>

  <text
    x="392"
    y="398"
    class="mono"
    fill="#71dced"
    font-size="12"
  >
    pipeline.status = "operational"
  </text>

  <!-- Alt sistem kartları -->

  <rect
    x="365"
    y="449"
    width="145"
    height="58"
    rx="13"
    fill="#0a1523"
    stroke="#263b54"
  />

  <rect
    x="525"
    y="449"
    width="145"
    height="58"
    rx="13"
    fill="#0a1523"
    stroke="#263b54"
  />

  <rect
    x="685"
    y="449"
    width="167"
    height="58"
    rx="13"
    fill="#0a1523"
    stroke="#263b54"
  />

  <text x="384" y="472" class="tiny">
    ARCHITECTURE
  </text>

  <text
    x="384"
    y="494"
    fill="#ffffff"
    font-size="15"
    font-weight="700"
  >
    Multi-Agent
  </text>

  <text x="544" y="472" class="tiny">
    KNOWLEDGE
  </text>

  <text
    x="544"
    y="494"
    fill="#ffffff"
    font-size="15"
    font-weight="700"
  >
    RAG + Vector
  </text>

  <text x="704" y="472" class="tiny">
    DELIVERY
  </text>

  <text
    x="704"
    y="494"
    fill="#ffffff"
    font-size="15"
    font-weight="700"
  >
    API → Product
  </text>

  <!-- Sağ modül paneli -->

  <rect
    x="898"
    y="94"
    width="278"
    height="442"
    rx="22"
    fill="url(#panel)"
    stroke="#2b3a52"
  />

  <text x="922" y="128" class="label">
    ACTIVE MODULES
  </text>

  <rect
    x="922"
    y="151"
    width="230"
    height="70"
    rx="14"
    fill="#0b1725"
    stroke="#26435b"
  />

  <circle cx="950" cy="186" r="14" fill="#102d3a"/>

  <text
    x="950"
    y="191"
    text-anchor="middle"
    fill="#6fe7f6"
    font-size="13"
    font-weight="800"
  >
    L
  </text>

  <text x="979" y="179" class="card-title">
    LLM Systems
  </text>

  <text x="979" y="199" class="tiny">
    Inference · Evaluation
  </text>

  <circle cx="1128" cy="186" r="5" fill="#33e6ac">
    <animate
      attributeName="opacity"
      values=".3;1;.3"
      dur="2s"
      repeatCount="indefinite"
    />
  </circle>

  <rect
    x="922"
    y="234"
    width="230"
    height="70"
    rx="14"
    fill="#0b1725"
    stroke="#26435b"
  />

  <circle cx="950" cy="269" r="14" fill="#211b3c"/>

  <text
    x="950"
    y="274"
    text-anchor="middle"
    fill="#b8a5ff"
    font-size="13"
    font-weight="800"
  >
    R
  </text>

  <text x="979" y="262" class="card-title">
    RAG &amp; Knowledge
  </text>

  <text x="979" y="282" class="tiny">
    Search · Grounding
  </text>

  <circle cx="1128" cy="269" r="5" fill="#33e6ac">
    <animate
      attributeName="opacity"
      values=".3;1;.3"
      dur="2.4s"
      repeatCount="indefinite"
    />
  </circle>

  <rect
    x="922"
    y="317"
    width="230"
    height="70"
    rx="14"
    fill="#0b1725"
    stroke="#26435b"
  />

  <circle cx="950" cy="352" r="14" fill="#352033"/>

  <text
    x="950"
    y="357"
    text-anchor="middle"
    fill="#ff9dcc"
    font-size="13"
    font-weight="800"
  >
    A
  </text>

  <text x="979" y="345" class="card-title">
    Agent Workflows
  </text>

  <text x="979" y="365" class="tiny">
    Tools · Orchestration
  </text>

  <circle cx="1128" cy="352" r="5" fill="#33e6ac">
    <animate
      attributeName="opacity"
      values=".3;1;.3"
      dur="2.8s"
      repeatCount="indefinite"
    />
  </circle>

  <rect
    x="922"
    y="400"
    width="230"
    height="70"
    rx="14"
    fill="#0b1725"
    stroke="#26435b"
  />

  <circle cx="950" cy="435" r="14" fill="#302611"/>

  <text
    x="950"
    y="440"
    text-anchor="middle"
    fill="#ffd77c"
    font-size="13"
    font-weight="800"
  >
    V
  </text>

  <text x="979" y="428" class="card-title">
    Computer Vision
  </text>

  <text x="979" y="448" class="tiny">
    OpenCV · YOLO
  </text>

  <circle cx="1128" cy="435" r="5" fill="#33e6ac">
    <animate
      attributeName="opacity"
      values=".3;1;.3"
      dur="3.2s"
      repeatCount="indefinite"
    />
  </circle>

  <rect
    x="922"
    y="489"
    width="230"
    height="22"
    rx="11"
    fill="#101d2b"
  />

  <rect
    x="924"
    y="491"
    width="52"
    height="18"
    rx="9"
    fill="url(#accent)"
  >
    <animate
      attributeName="x"
      values="924;1098;924"
      dur="7s"
      repeatCount="indefinite"
    />
  </rect>
</svg>
