<svg
  xmlns="http://www.w3.org/2000/svg"
  width="1200"
  height="245"
  viewBox="0 0 1200 245"
  role="img"
  aria-labelledby="title desc"
>
  <title id="title">
    Yağmur Güngöz technology stack
  </title>

  <desc id="desc">
    Yapay zekâ, backend, frontend, veri ve deployment teknolojileri.
  </desc>

  <defs>
    <linearGradient id="bg" x1="0" y1="0" x2="1" y2="1">
      <stop offset="0" stop-color="#080c14"/>
      <stop offset="1" stop-color="#0d1725"/>
    </linearGradient>

    <linearGradient id="accent" x1="0" y1="0" x2="1" y2="0">
      <stop offset="0" stop-color="#24d3ee"/>
      <stop offset=".5" stop-color="#7c5cff"/>
      <stop offset="1" stop-color="#ff4f9a"/>
    </linearGradient>

    <style>
      text {
        font-family: Inter, "Segoe UI", Arial, sans-serif;
      }

      .group {
        fill: #7f93ae;
        font-size: 11px;
        font-weight: 700;
        letter-spacing: 1.4px;
      }

      .pill {
        fill: #eef5ff;
        font-size: 14px;
        font-weight: 700;
      }
    </style>
  </defs>

  <rect
    width="1200"
    height="245"
    rx="24"
    fill="url(#bg)"
  />

  <rect
    x="1"
    y="1"
    width="1198"
    height="243"
    rx="23"
    fill="none"
    stroke="#293950"
  />

  <text x="42" y="43" class="group">
    AI / MACHINE LEARNING
  </text>

  <rect
    x="42"
    y="60"
    width="118"
    height="42"
    rx="13"
    fill="#102332"
    stroke="#22506a"
  />

  <text
    x="101"
    y="86"
    text-anchor="middle"
    class="pill"
  >
    Python
  </text>

  <rect
    x="172"
    y="60"
    width="118"
    height="42"
    rx="13"
    fill="#171e38"
    stroke="#443a7a"
  />

  <text
    x="231"
    y="86"
    text-anchor="middle"
    class="pill"
  >
    PyTorch
  </text>

  <rect
    x="302"
    y="60"
    width="130"
    height="42"
    rx="13"
    fill="#17233a"
    stroke="#334f7a"
  />

  <text
    x="367"
    y="86"
    text-anchor="middle"
    class="pill"
  >
    Transformers
  </text>

  <rect
    x="444"
    y="60"
    width="105"
    height="42"
    rx="13"
    fill="#102332"
    stroke="#22506a"
  />

  <text
    x="496.5"
    y="86"
    text-anchor="middle"
    class="pill"
  >
    OpenCV
  </text>

  <rect
    x="561"
    y="60"
    width="88"
    height="42"
    rx="13"
    fill="#2a2113"
    stroke="#66502a"
  />

  <text
    x="605"
    y="86"
    text-anchor="middle"
    class="pill"
  >
    YOLO
  </text>

  <rect
    x="661"
    y="60"
    width="92"
    height="42"
    rx="13"
    fill="#22203a"
    stroke="#534a82"
  />

  <text
    x="707"
    y="86"
    text-anchor="middle"
    class="pill"
  >
    LLMs
  </text>

  <rect
    x="765"
    y="60"
    width="86"
    height="42"
    rx="13"
    fill="#102332"
    stroke="#22506a"
  />

  <text
    x="808"
    y="86"
    text-anchor="middle"
    class="pill"
  >
    RAG
  </text>

  <rect
    x="863"
    y="60"
    width="118"
    height="42"
    rx="13"
    fill="#291a2a"
    stroke="#6a385d"
  />

  <text
    x="922"
    y="86"
    text-anchor="middle"
    class="pill"
  >
    AI Agents
  </text>

  <rect
    x="993"
    y="60"
    width="165"
    height="42"
    rx="13"
    fill="#102332"
    stroke="#22506a"
  />

  <text
    x="1075.5"
    y="86"
    text-anchor="middle"
    class="pill"
  >
    Model Evaluation
  </text>

  <text x="42" y="139" class="group">
    PRODUCT / PLATFORM
  </text>

  <rect
    x="42"
    y="156"
    width="112"
    height="42"
    rx="13"
    fill="#102332"
    stroke="#22506a"
  />

  <text
    x="98"
    y="182"
    text-anchor="middle"
    class="pill"
  >
    FastAPI
  </text>

  <rect
    x="166"
    y="156"
    width="105"
    height="42"
    rx="13"
    fill="#161c27"
    stroke="#3b485e"
  />

  <text
    x="218.5"
    y="182"
    text-anchor="middle"
    class="pill"
  >
    Next.js
  </text>

  <rect
    x="283"
    y="156"
    width="98"
    height="42"
    rx="13"
    fill="#102332"
    stroke="#22506a"
  />

  <text
    x="332"
    y="182"
    text-anchor="middle"
    class="pill"
  >
    React
  </text>

  <rect
    x="393"
    y="156"
    width="124"
    height="42"
    rx="13"
    fill="#17233a"
    stroke="#334f7a"
  />

  <text
    x="455"
    y="182"
    text-anchor="middle"
    class="pill"
  >
    TypeScript
  </text>

  <rect
    x="529"
    y="156"
    width="125"
    height="42"
    rx="13"
    fill="#12251f"
    stroke="#2b6753"
  />

  <text
    x="591.5"
    y="182"
    text-anchor="middle"
    class="pill"
  >
    PostgreSQL
  </text>

  <rect
    x="666"
    y="156"
    width="118"
    height="42"
    rx="13"
    fill="#12251f"
    stroke="#2b6753"
  />

  <text
    x="725"
    y="182"
    text-anchor="middle"
    class="pill"
  >
    Supabase
  </text>

  <rect
    x="796"
    y="156"
    width="102"
    height="42"
    rx="13"
    fill="#17233a"
    stroke="#334f7a"
  />

  <text
    x="847"
    y="182"
    text-anchor="middle"
    class="pill"
  >
    Docker
  </text>

  <rect
    x="910"
    y="156"
    width="94"
    height="42"
    rx="13"
    fill="#291a2a"
    stroke="#6a385d"
  />

  <text
    x="957"
    y="182"
    text-anchor="middle"
    class="pill"
  >
    GitHub
  </text>

  <rect
    x="1016"
    y="156"
    width="142"
    height="42"
    rx="13"
    fill="#2a2113"
    stroke="#66502a"
  />

  <text
    x="1087"
    y="182"
    text-anchor="middle"
    class="pill"
  >
    Deployment
  </text>

  <rect
    x="42"
    y="220"
    width="1116"
    height="3"
    rx="1.5"
    fill="url(#accent)"
    opacity=".78"
  />
</svg>
